<?xml version="1.0" encoding="utf-8"?>
<!-- Generator: Adobe Illustrator 15.1.0, SVG Export Plug-In . SVG Version: 6.00 Build 0)  -->
<!DOCTYPE svg PUBLIC "-//W3C//DTD SVG 1.1//EN" "http://www.w3.org/Graphics/SVG/1.1/DTD/svg11.dtd">
<svg version="1.1" id="圖層_1" xmlns="http://www.w3.org/2000/svg" xmlns:xlink="http://www.w3.org/1999/xlink" x="0px" y="0px"
	 width="110px" height="30px" viewBox="0 0 110 30" enable-background="new 0 0 110 30" xml:space="preserve">
<path fill-rule="evenodd" clip-rule="evenodd" fill="#2E2624" d="M110,27c0,1.656-1.344,3-3,3H3c-1.657,0-3-1.344-3-3V3
	c0-1.657,1.343-3,3-3h104c1.656,0,3,1.343,3,3V27z"/>
<path fill-rule="evenodd" clip-rule="evenodd" fill="#3E3A39" d="M109,26c0,1.656-1.343,3-3,3H4c-1.657,0-3-1.344-3-3V4
	c0-1.657,1.343-3,3-3h102c1.657,0,3,1.343,3,3V26z"/>
<g>
	<g opacity="0.75">
		<path fill-rule="evenodd" clip-rule="evenodd" fill="#231815" d="M21.078,8.728c0.518,0.429,1.64,1.329,1.64,3.041
			c0,1.667-0.986,2.456-1.933,3.198c-0.293,0.294-0.631,0.609-0.631,1.105c0,0.496,0.338,0.766,0.586,0.969l0.812,0.629
			c0.99,0.834,1.813,1.602,1.813,3.154c0,2.117-1.971,4.258-5.846,4.258c-3.267,0-4.962-1.555-4.962-3.221
			c0-0.813,0.524-1.961,1.854-2.75c1.396-0.855,3.29-0.967,4.303-1.035c-0.315-0.406-0.676-0.834-0.676-1.531
			c0-0.383,0.113-0.608,0.225-0.879c-0.248,0.023-0.495,0.045-0.721,0.045c-2.388,0-3.699-1.799-3.699-3.556
			c0-1.036,0.434-2.166,1.401-2.999c1.284-1.059,2.816-1.239,4.032-1.239h4.641l-1.441,0.81H21.078z M19.479,18.729
			c-0.181-0.021-0.293-0.021-0.517-0.021c-0.204,0-1.421,0.045-2.367,0.359c-0.495,0.182-1.937,0.721-1.937,2.322
			c0,1.6,1.554,2.746,3.965,2.746c2.162,0,3.311-1.035,3.311-2.432C21.934,20.555,21.191,19.947,19.479,18.729 M20.133,14.45
			c0.518-0.519,0.563-1.24,0.563-1.646c0-1.622-0.97-4.145-2.839-4.145c-0.585,0-1.216,0.293-1.577,0.744
			c-0.382,0.474-0.495,1.082-0.495,1.667c0,1.509,0.878,4.011,2.815,4.011C19.163,15.081,19.771,14.811,20.133,14.45"/>
	</g>
	<g>
		<path fill-rule="evenodd" clip-rule="evenodd" fill="#FFFFFF" d="M20.578,8.228c0.518,0.429,1.64,1.329,1.64,3.041
			c0,1.667-0.986,2.456-1.933,3.198c-0.293,0.294-0.631,0.609-0.631,1.105c0,0.497,0.338,0.766,0.586,0.969l0.812,0.629
			c0.99,0.834,1.813,1.602,1.813,3.154c0,2.117-1.971,4.258-5.846,4.258c-3.267,0-4.962-1.555-4.962-3.221
			c0-0.813,0.524-1.961,1.854-2.75c1.396-0.855,3.29-0.967,4.303-1.035c-0.315-0.406-0.676-0.834-0.676-1.531
			c0-0.383,0.113-0.608,0.225-0.879c-0.248,0.022-0.495,0.045-0.721,0.045c-2.388,0-3.699-1.799-3.699-3.556
			c0-1.036,0.434-2.166,1.401-2.999c1.284-1.059,2.816-1.239,4.032-1.239h4.641l-1.441,0.81H20.578z M18.979,18.229
			c-0.181-0.021-0.293-0.021-0.517-0.021c-0.204,0-1.421,0.045-2.367,0.359c-0.495,0.182-1.937,0.721-1.937,2.322
			c0,1.6,1.554,2.746,3.965,2.746c2.162,0,3.311-1.035,3.311-2.432C21.434,20.055,20.691,19.447,18.979,18.229 M19.633,13.95
			c0.518-0.519,0.563-1.24,0.563-1.646c0-1.622-0.97-4.145-2.839-4.145c-0.585,0-1.216,0.293-1.577,0.744
			c-0.382,0.474-0.495,1.082-0.495,1.667c0,1.509,0.878,4.011,2.815,4.011C18.663,14.581,19.271,14.311,19.633,13.95"/>
	</g>
</g>
<g>
	<g opacity="0.75">
		<path fill="#231815" d="M47.311,17.056v-1.688h4.361v3.992c-0.424,0.41-1.038,0.771-1.842,1.084
			c-0.804,0.312-1.619,0.468-2.444,0.468c-1.048,0-1.962-0.22-2.741-0.659c-0.779-0.44-1.365-1.069-1.757-1.887
			c-0.392-0.818-0.588-1.709-0.588-2.67c0-1.043,0.219-1.971,0.656-2.782s1.078-1.433,1.921-1.866
			c0.643-0.333,1.442-0.499,2.399-0.499c1.244,0,2.216,0.261,2.916,0.783s1.149,1.243,1.35,2.164l-2.01,0.376
			c-0.141-0.492-0.407-0.881-0.796-1.166s-0.876-0.427-1.459-0.427c-0.884,0-1.587,0.28-2.109,0.841s-0.783,1.392-0.783,2.495
			c0,1.189,0.264,2.082,0.793,2.676c0.529,0.596,1.221,0.893,2.078,0.893c0.424,0,0.849-0.083,1.275-0.25
			c0.426-0.166,0.792-0.367,1.097-0.604v-1.271H47.311z"/>
		<path fill="#231815" d="M53.081,17.008c0-0.639,0.157-1.255,0.472-1.853s0.76-1.053,1.337-1.367
			c0.576-0.314,1.22-0.472,1.931-0.472c1.099,0,1.998,0.356,2.7,1.07S60.573,16,60.573,17.09c0,1.098-0.354,2.009-1.063,2.73
			c-0.709,0.723-1.602,1.084-2.677,1.084c-0.665,0-1.3-0.15-1.903-0.451c-0.604-0.301-1.063-0.742-1.378-1.322
			C53.238,18.549,53.081,17.842,53.081,17.008z M55.05,17.11c0,0.72,0.171,1.271,0.513,1.654s0.764,0.574,1.265,0.574
			s0.922-0.191,1.262-0.574c0.339-0.383,0.509-0.938,0.509-1.668c0-0.711-0.17-1.258-0.509-1.641
			c-0.34-0.383-0.761-0.574-1.262-0.574s-0.923,0.191-1.265,0.574S55.05,16.391,55.05,17.11z"/>
		<path fill="#231815" d="M61.632,17.008c0-0.639,0.157-1.255,0.472-1.853s0.76-1.053,1.337-1.367
			c0.576-0.314,1.22-0.472,1.931-0.472c1.099,0,1.998,0.356,2.7,1.07S69.124,16,69.124,17.09c0,1.098-0.354,2.009-1.063,2.73
			c-0.709,0.723-1.602,1.084-2.677,1.084c-0.665,0-1.3-0.15-1.903-0.451c-0.604-0.301-1.063-0.742-1.378-1.322
			C61.789,18.549,61.632,17.842,61.632,17.008z M63.601,17.11c0,0.72,0.171,1.271,0.513,1.654s0.764,0.574,1.265,0.574
			s0.922-0.191,1.262-0.574c0.339-0.383,0.509-0.938,0.509-1.668c0-0.711-0.17-1.258-0.509-1.641
			c-0.34-0.383-0.761-0.574-1.262-0.574s-0.923,0.191-1.265,0.574S63.601,16.391,63.601,17.11z"/>
		<path fill="#231815" d="M70.451,21.219l2.194,0.267c0.036,0.255,0.121,0.431,0.253,0.526c0.183,0.137,0.47,0.205,0.861,0.205
			c0.501,0,0.877-0.075,1.128-0.226c0.169-0.101,0.296-0.263,0.383-0.485c0.06-0.16,0.089-0.453,0.089-0.882v-1.06
			c-0.574,0.783-1.299,1.176-2.174,1.176c-0.976,0-1.748-0.412-2.317-1.237c-0.446-0.651-0.67-1.463-0.67-2.434
			c0-1.217,0.293-2.146,0.879-2.789c0.585-0.643,1.313-0.964,2.184-0.964c0.897,0,1.639,0.394,2.222,1.183V13.48h1.798v6.515
			c0,0.856-0.07,1.497-0.212,1.921s-0.34,0.756-0.595,0.998s-0.596,0.431-1.021,0.567c-0.427,0.137-0.966,0.205-1.617,0.205
			c-1.23,0-2.104-0.211-2.618-0.632c-0.515-0.422-0.772-0.957-0.772-1.604C70.444,21.387,70.446,21.311,70.451,21.219z
			 M72.167,16.96c0,0.771,0.149,1.334,0.447,1.692c0.299,0.357,0.667,0.536,1.104,0.536c0.47,0,0.866-0.184,1.189-0.55
			c0.323-0.367,0.485-0.91,0.485-1.631c0-0.752-0.155-1.31-0.465-1.675s-0.702-0.547-1.176-0.547c-0.46,0-0.84,0.179-1.139,0.537
			C72.316,15.681,72.167,16.227,72.167,16.96z"/>
		<path fill="#231815" d="M79.18,20.74V10.719h1.921V20.74H79.18z"/>
		<path fill="#231815" d="M87.274,18.43l1.914,0.321c-0.246,0.702-0.635,1.236-1.166,1.603c-0.53,0.367-1.194,0.551-1.992,0.551
			c-1.263,0-2.196-0.412-2.803-1.237c-0.479-0.661-0.718-1.495-0.718-2.502c0-1.203,0.314-2.146,0.943-2.827
			s1.424-1.022,2.386-1.022c1.08,0,1.933,0.356,2.557,1.07s0.923,1.805,0.896,3.278h-4.813c0.014,0.57,0.169,1.013,0.465,1.33
			c0.296,0.316,0.665,0.475,1.107,0.475c0.301,0,0.554-0.082,0.759-0.246S87.17,18.795,87.274,18.43z M87.384,16.488
			c-0.014-0.556-0.157-0.979-0.431-1.268s-0.606-0.434-0.998-0.434c-0.419,0-0.766,0.153-1.039,0.458s-0.408,0.72-0.403,1.244
			H87.384z"/>
	</g>
	<g>
		<g>
			<path fill="#FFFFFF" d="M46.811,16.556v-1.688h4.361v3.992c-0.424,0.41-1.038,0.771-1.842,1.084
				c-0.804,0.312-1.619,0.468-2.444,0.468c-1.048,0-1.962-0.22-2.741-0.659c-0.779-0.44-1.365-1.069-1.757-1.887
				c-0.392-0.818-0.588-1.709-0.588-2.67c0-1.043,0.219-1.971,0.656-2.782s1.078-1.433,1.921-1.866
				c0.643-0.333,1.442-0.499,2.399-0.499c1.244,0,2.216,0.261,2.916,0.783s1.149,1.243,1.35,2.164l-2.01,0.376
				c-0.141-0.492-0.407-0.881-0.796-1.166s-0.876-0.427-1.459-0.427c-0.884,0-1.587,0.28-2.109,0.841s-0.783,1.392-0.783,2.495
				c0,1.189,0.264,2.082,0.793,2.676c0.529,0.596,1.221,0.893,2.078,0.893c0.424,0,0.849-0.083,1.275-0.25
				c0.426-0.166,0.792-0.367,1.097-0.604v-1.271H46.811z"/>
			<path fill="#FFFFFF" d="M52.581,16.508c0-0.638,0.157-1.255,0.472-1.853s0.76-1.053,1.337-1.367
				c0.576-0.314,1.22-0.472,1.931-0.472c1.099,0,1.998,0.356,2.7,1.07s1.053,1.614,1.053,2.704c0,1.098-0.354,2.009-1.063,2.73
				c-0.709,0.723-1.602,1.084-2.677,1.084c-0.665,0-1.3-0.15-1.903-0.451c-0.604-0.301-1.063-0.742-1.378-1.322
				C52.738,18.049,52.581,17.342,52.581,16.508z M54.55,16.61c0,0.72,0.171,1.271,0.513,1.654s0.764,0.574,1.265,0.574
				s0.922-0.191,1.262-0.574c0.339-0.383,0.509-0.938,0.509-1.668c0-0.711-0.17-1.258-0.509-1.641
				c-0.34-0.383-0.761-0.574-1.262-0.574s-0.923,0.191-1.265,0.574S54.55,15.89,54.55,16.61z"/>
			<path fill="#FFFFFF" d="M61.132,16.508c0-0.638,0.157-1.255,0.472-1.853s0.76-1.053,1.337-1.367
				c0.576-0.314,1.22-0.472,1.931-0.472c1.099,0,1.998,0.356,2.7,1.07s1.053,1.614,1.053,2.704c0,1.098-0.354,2.009-1.063,2.73
				c-0.709,0.723-1.602,1.084-2.677,1.084c-0.665,0-1.3-0.15-1.903-0.451c-0.604-0.301-1.063-0.742-1.378-1.322
				C61.289,18.049,61.132,17.342,61.132,16.508z M63.101,16.61c0,0.72,0.171,1.271,0.513,1.654s0.764,0.574,1.265,0.574
				s0.922-0.191,1.262-0.574c0.339-0.383,0.509-0.938,0.509-1.668c0-0.711-0.17-1.258-0.509-1.641
				c-0.34-0.383-0.761-0.574-1.262-0.574s-0.923,0.191-1.265,0.574S63.101,15.89,63.101,16.61z"/>
			<path fill="#FFFFFF" d="M69.951,20.719l2.194,0.267c0.036,0.255,0.121,0.431,0.253,0.526c0.183,0.137,0.47,0.205,0.861,0.205
				c0.501,0,0.877-0.075,1.128-0.226c0.169-0.101,0.296-0.263,0.383-0.485c0.06-0.16,0.089-0.453,0.089-0.882v-1.06
				c-0.574,0.783-1.299,1.176-2.174,1.176c-0.976,0-1.748-0.412-2.317-1.237c-0.446-0.651-0.67-1.463-0.67-2.434
				c0-1.217,0.293-2.146,0.879-2.789c0.585-0.643,1.313-0.964,2.184-0.964c0.897,0,1.639,0.394,2.222,1.183V12.98h1.798v6.515
				c0,0.856-0.07,1.497-0.212,1.921s-0.34,0.756-0.595,0.998s-0.596,0.431-1.021,0.567c-0.427,0.137-0.966,0.205-1.617,0.205
				c-1.23,0-2.104-0.211-2.618-0.632c-0.515-0.422-0.772-0.957-0.772-1.604C69.944,20.887,69.946,20.811,69.951,20.719z
				 M71.667,16.46c0,0.771,0.149,1.334,0.447,1.692c0.299,0.357,0.667,0.536,1.104,0.536c0.47,0,0.866-0.184,1.189-0.55
				c0.323-0.367,0.485-0.91,0.485-1.631c0-0.752-0.155-1.31-0.465-1.675s-0.702-0.547-1.176-0.547c-0.46,0-0.84,0.179-1.139,0.537
				C71.816,15.181,71.667,15.726,71.667,16.46z"/>
			<path fill="#FFFFFF" d="M78.68,20.24V10.219h1.921V20.24H78.68z"/>
			<path fill="#FFFFFF" d="M86.774,17.93l1.914,0.321c-0.246,0.702-0.635,1.236-1.166,1.603c-0.53,0.367-1.194,0.551-1.992,0.551
				c-1.263,0-2.196-0.412-2.803-1.237c-0.479-0.661-0.718-1.495-0.718-2.502c0-1.203,0.314-2.146,0.943-2.827
				s1.424-1.022,2.386-1.022c1.08,0,1.933,0.356,2.557,1.07s0.923,1.806,0.896,3.278h-4.813c0.014,0.57,0.169,1.013,0.465,1.33
				c0.296,0.316,0.665,0.475,1.107,0.475c0.301,0,0.554-0.082,0.759-0.246S86.67,18.295,86.774,17.93z M86.884,15.988
				c-0.014-0.556-0.157-0.979-0.431-1.268s-0.606-0.434-0.998-0.434c-0.419,0-0.766,0.153-1.039,0.458s-0.408,0.72-0.403,1.244
				H86.884z"/>
		</g>
	</g>
</g>
</svg>
